<?xml version="1.0" encoding="UTF-8" standalone="no"?>
<!-- Created with Inkscape (http://www.inkscape.org/) -->

<svg
   xmlns:dc="http://purl.org/dc/elements/1.1/"
   xmlns:cc="http://creativecommons.org/ns#"
   xmlns:rdf="http://www.w3.org/1999/02/22-rdf-syntax-ns#"
   xmlns:svg="http://www.w3.org/2000/svg"
   xmlns="http://www.w3.org/2000/svg"
   xmlns:sodipodi="http://sodipodi.sourceforge.net/DTD/sodipodi-0.dtd"
   xmlns:inkscape="http://www.inkscape.org/namespaces/inkscape"
   width="14.091077"
   height="16"
   id="svg3027"
   version="1.1"
   inkscape:version="0.48.4 r9939"
   sodipodi:docname="scansh-ink.svg"
   inkscape:export-filename="/home/robin/scanner-tools/scansh-grn.png"
   inkscape:export-xdpi="410.625"
   inkscape:export-ydpi="410.625">
  <defs
     id="defs3029" />
  <sodipodi:namedview
     id="base"
     pagecolor="#ffffff"
     bordercolor="#666666"
     borderopacity="1.0"
     inkscape:pageopacity="0.0"
     inkscape:pageshadow="2"
     inkscape:zoom="25.567426"
     inkscape:cx="1.8939778"
     inkscape:cy="6.5877195"
     inkscape:document-units="px"
     inkscape:current-layer="g3084"
     showgrid="false"
     fit-margin-top="0"
     fit-margin-left="0"
     fit-margin-right="0"
     fit-margin-bottom="0"
     inkscape:window-width="1440"
     inkscape:window-height="878"
     inkscape:window-x="0"
     inkscape:window-y="0"
     inkscape:window-maximized="1" />
  <metadata
     id="metadata3032">
    <rdf:RDF>
      <cc:Work
         rdf:about="">
        <dc:format>image/svg+xml</dc:format>
        <dc:type
           rdf:resource="http://purl.org/dc/dcmitype/StillImage" />
        <dc:title></dc:title>
      </cc:Work>
    </rdf:RDF>
  </metadata>
  <g
     inkscape:label="Grey"
     inkscape:groupmode="layer"
     id="layer1"
     transform="translate(-444.38303,-696.93361)"
     sodipodi:insensitive="true"
     style="display:none">
    <path
       d="m 446.42857,696.93361 c -0.57847,0 -1.0598,0.19914 -1.46875,0.5625 -0.20447,0.18168 -0.38952,0.41779 -0.5,0.75 -0.11048,0.33221 -0.11181,0.77424 0.0625,1.125 l 1,2 c 0.0882,0.17755 0.20315,0.42726 0.375,0.6875 0.24004,-0.0728 0.4938,-0.125 0.75,-0.125 l 9.5625,0 c 0.2562,0 0.50996,0.0522 0.75,0.125 0.17185,-0.26025 0.28676,-0.50995 0.375,-0.6875 l 1,-2 c 0.17431,-0.35076 0.17298,-0.79279 0.0625,-1.125 -0.11048,-0.33221 -0.29553,-0.56832 -0.5,-0.75 -0.40895,-0.36336 -0.89028,-0.5625 -1.46875,-0.5625 l -10,0 z m 0.125,2 9.75,0 -0.78125,1.5625 c -0.1179,0.23724 -0.17682,0.37121 -0.21875,0.4375 l -7.75,0 c -0.0419,-0.0663 -0.10085,-0.20026 -0.21875,-0.4375 l -0.78125,-1.5625 z"
       inkscape:connector-curvature="0"
       style="font-size:medium;font-style:normal;font-variant:normal;font-weight:normal;font-stretch:normal;text-indent:0;text-align:start;text-decoration:none;line-height:normal;letter-spacing:normal;word-spacing:normal;text-transform:none;direction:ltr;block-progression:tb;writing-mode:lr-tb;text-anchor:start;baseline-shift:baseline;color:#000000;fill:#bebebe;fill-opacity:1;fill-rule:nonzero;stroke:none;stroke-width:2;marker:none;visibility:visible;display:inline;overflow:visible;enable-background:accumulate;font-family:Sans;-inkscape-font-specification:Sans"
       id="rect4640-8"
       inkscape:export-filename="/home/robin/scanner-tools/scansh.png"
       inkscape:export-xdpi="410.625"
       inkscape:export-ydpi="410.625" />
    <path
       d="m 447.42857,702.93361 c -0.4875,0 -0.93518,0.14403 -1.3125,0.4375 -0.37732,0.29347 -0.6875,0.78189 -0.6875,1.34375 l 0,8.21875 12,0 0,-8.21875 c 0,-0.56186 -0.31018,-1.05028 -0.6875,-1.34375 -0.37732,-0.29347 -0.825,-0.4375 -1.3125,-0.4375 z m 0,1 8,0 0,6 -8,0 z m 7,7 1,0 0,1 -1,0 z"
       inkscape:connector-curvature="0"
       style="font-size:medium;font-style:normal;font-variant:normal;font-weight:normal;font-stretch:normal;text-indent:0;text-align:start;text-decoration:none;line-height:normal;letter-spacing:normal;word-spacing:normal;text-transform:none;direction:ltr;block-progression:tb;writing-mode:lr-tb;text-anchor:start;baseline-shift:baseline;color:#000000;fill:#bebebe;fill-opacity:1;fill-rule:nonzero;stroke:none;stroke-width:2;marker:none;visibility:visible;display:inline;overflow:visible;enable-background:accumulate;font-family:Sans;-inkscape-font-specification:Sans"
       sodipodi:nodetypes="sssccsssscccccccccc"
       id="rect4640"
       inkscape:export-filename="/home/robin/scanner-tools/scansh.png"
       inkscape:export-xdpi="410.625"
       inkscape:export-ydpi="410.625" />
    <rect
       width="10.000013"
       height="2"
       x="446.42859"
       y="-700.93359"
       style="opacity:0.35;color:#000000;fill:#bebebe;fill-opacity:1;fill-rule:nonzero;stroke:none;stroke-width:2;marker:none;visibility:visible;display:inline;overflow:visible;enable-background:accumulate"
       rx="0"
       ry="0"
       id="rect5505"
       transform="scale(1,-1)"
       inkscape:export-filename="/home/robin/scanner-tools/scansh.png"
       inkscape:export-xdpi="410.625"
       inkscape:export-ydpi="410.625" />
    <rect
       width="5.9999862"
       height="1"
       x="448.42859"
       y="707.96484"
       style="color:#000000;fill:#bebebe;fill-opacity:1;fill-rule:nonzero;stroke:none;stroke-width:2;marker:none;visibility:visible;display:inline;overflow:visible;enable-background:accumulate"
       rx="0"
       ry="0"
       id="rect5431"
       inkscape:export-filename="/home/robin/scanner-tools/scansh.png"
       inkscape:export-xdpi="410.625"
       inkscape:export-ydpi="410.625" />
    <path
       d="m 448.42858,704.96486 5.99999,0 0,0.96875 -5.99999,1 z"
       inkscape:connector-curvature="0"
       style="opacity:0.35;color:#000000;fill:#bebebe;fill-opacity:1;fill-rule:nonzero;stroke:none;stroke-width:2;marker:none;visibility:visible;display:inline;overflow:visible;enable-background:accumulate"
       sodipodi:nodetypes="ccccc"
       id="rect5431-4"
       inkscape:export-filename="/home/robin/scanner-tools/scansh.png"
       inkscape:export-xdpi="410.625"
       inkscape:export-ydpi="410.625" />
  </g>
  <g
     transform="translate(-444.38303,-696.93361)"
     id="g3084"
     inkscape:groupmode="layer"
     inkscape:label="Red"
     style="display:none"
     sodipodi:insensitive="true">
    <rect
       inkscape:export-ydpi="410.625"
       inkscape:export-xdpi="410.625"
       inkscape:export-filename="/home/robin/scanner-tools/scansh.png"
       transform="scale(1,-1)"
       id="rect3090"
       ry="0"
       rx="0"
       style="opacity:0.35;color:#000000;fill:#bebebe;fill-opacity:1;fill-rule:nonzero;stroke:none;stroke-width:2;marker:none;visibility:visible;display:inline;overflow:visible;enable-background:accumulate"
       y="-700.93359"
       x="446.42859"
       height="2"
       width="10.000013" />
    <path
       inkscape:export-ydpi="410.625"
       inkscape:export-xdpi="410.625"
       inkscape:export-filename="/home/robin/scanner-tools/scansh.png"
       id="path3086"
       style="font-size:medium;font-style:normal;font-variant:normal;font-weight:normal;font-stretch:normal;text-indent:0;text-align:start;text-decoration:none;line-height:normal;letter-spacing:normal;word-spacing:normal;text-transform:none;direction:ltr;block-progression:tb;writing-mode:lr-tb;text-anchor:start;baseline-shift:baseline;color:#000000;fill:#ff1e1e;fill-opacity:0.78431373;fill-rule:nonzero;stroke:none;stroke-width:2;marker:none;visibility:visible;display:inline;overflow:visible;enable-background:accumulate;font-family:Sans;-inkscape-font-specification:Sans"
       inkscape:connector-curvature="0"
       d="m 446.42857,696.93361 c -0.57847,0 -1.0598,0.19914 -1.46875,0.5625 -0.20447,0.18168 -0.38952,0.41779 -0.5,0.75 -0.11048,0.33221 -0.11181,0.77424 0.0625,1.125 l 1,2 c 0.0882,0.17755 0.20315,0.42726 0.375,0.6875 0.24004,-0.0728 0.4938,-0.125 0.75,-0.125 l 9.5625,0 c 0.2562,0 0.50996,0.0522 0.75,0.125 0.17185,-0.26025 0.28676,-0.50995 0.375,-0.6875 l 1,-2 c 0.17431,-0.35076 0.17298,-0.79279 0.0625,-1.125 -0.11048,-0.33221 -0.29553,-0.56832 -0.5,-0.75 -0.40895,-0.36336 -0.89028,-0.5625 -1.46875,-0.5625 l -10,0 z m 0.125,2 9.75,0 -0.78125,1.5625 c -0.1179,0.23724 -0.17682,0.37121 -0.21875,0.4375 l -7.75,0 c -0.0419,-0.0663 -0.10085,-0.20026 -0.21875,-0.4375 l -0.78125,-1.5625 z" />
    <path
       inkscape:export-ydpi="410.625"
       inkscape:export-xdpi="410.625"
       inkscape:export-filename="/home/robin/scanner-tools/scansh.png"
       id="path3088"
       sodipodi:nodetypes="sssccsssscccccccccc"
       style="font-size:medium;font-style:normal;font-variant:normal;font-weight:normal;font-stretch:normal;text-indent:0;text-align:start;text-decoration:none;line-height:normal;letter-spacing:normal;word-spacing:normal;text-transform:none;direction:ltr;block-progression:tb;writing-mode:lr-tb;text-anchor:start;baseline-shift:baseline;color:#000000;fill:#ff1e1e;fill-opacity:0.78431373;fill-rule:nonzero;stroke:none;stroke-width:2;marker:none;visibility:visible;display:inline;overflow:visible;enable-background:accumulate;font-family:Sans;-inkscape-font-specification:Sans"
       inkscape:connector-curvature="0"
       d="m 447.42857,702.93361 c -0.4875,0 -0.93518,0.14403 -1.3125,0.4375 -0.37732,0.29347 -0.6875,0.78189 -0.6875,1.34375 l 0,8.21875 12,0 0,-8.21875 c 0,-0.56186 -0.31018,-1.05028 -0.6875,-1.34375 -0.37732,-0.29347 -0.825,-0.4375 -1.3125,-0.4375 z m 0,1 8,0 0,6 -8,0 z m 7,7 1,0 0,1 -1,0 z" />
    <rect
       inkscape:export-ydpi="410.625"
       inkscape:export-xdpi="410.625"
       inkscape:export-filename="/home/robin/scanner-tools/scansh.png"
       id="rect3092"
       ry="0"
       rx="0"
       style="color:#000000;fill:#bebebe;fill-opacity:1;fill-rule:nonzero;stroke:none;stroke-width:2;marker:none;visibility:visible;display:inline;overflow:visible;enable-background:accumulate"
       y="707.96484"
       x="448.42859"
       height="1"
       width="5.9999862" />
    <path
       inkscape:export-ydpi="410.625"
       inkscape:export-xdpi="410.625"
       inkscape:export-filename="/home/robin/scanner-tools/scansh.png"
       id="path3094"
       sodipodi:nodetypes="ccccc"
       style="opacity:0.35;color:#000000;fill:#bebebe;fill-opacity:1;fill-rule:nonzero;stroke:none;stroke-width:2;marker:none;visibility:visible;display:inline;overflow:visible;enable-background:accumulate"
       inkscape:connector-curvature="0"
       d="m 448.42858,704.96486 5.99999,0 0,0.96875 -5.99999,1 z" />
  </g>
  <g
     inkscape:label="Green"
     inkscape:groupmode="layer"
     id="g3096"
     transform="translate(-444.38303,-696.93361)"
     sodipodi:insensitive="true"
     style="display:inline">
    <rect
       width="10.000013"
       height="2"
       x="446.42859"
       y="-700.93359"
       style="opacity:0.35;color:#000000;fill:#bebebe;fill-opacity:1;fill-rule:nonzero;stroke:none;stroke-width:2;marker:none;visibility:visible;display:inline;overflow:visible;enable-background:accumulate"
       rx="0"
       ry="0"
       id="rect3102"
       transform="scale(1,-1)"
       inkscape:export-filename="/home/robin/scanner-tools/scansh.png"
       inkscape:export-xdpi="410.625"
       inkscape:export-ydpi="410.625" />
    <path
       d="m 446.42857,696.93361 c -0.57847,0 -1.0598,0.19914 -1.46875,0.5625 -0.20447,0.18168 -0.38952,0.41779 -0.5,0.75 -0.11048,0.33221 -0.11181,0.77424 0.0625,1.125 l 1,2 c 0.0882,0.17755 0.20315,0.42726 0.375,0.6875 0.24004,-0.0728 0.4938,-0.125 0.75,-0.125 l 9.5625,0 c 0.2562,0 0.50996,0.0522 0.75,0.125 0.17185,-0.26025 0.28676,-0.50995 0.375,-0.6875 l 1,-2 c 0.17431,-0.35076 0.17298,-0.79279 0.0625,-1.125 -0.11048,-0.33221 -0.29553,-0.56832 -0.5,-0.75 -0.40895,-0.36336 -0.89028,-0.5625 -1.46875,-0.5625 l -10,0 z m 0.125,2 9.75,0 -0.78125,1.5625 c -0.1179,0.23724 -0.17682,0.37121 -0.21875,0.4375 l -7.75,0 c -0.0419,-0.0663 -0.10085,-0.20026 -0.21875,-0.4375 l -0.78125,-1.5625 z"
       inkscape:connector-curvature="0"
       style="font-size:medium;font-style:normal;font-variant:normal;font-weight:normal;font-stretch:normal;text-indent:0;text-align:start;text-decoration:none;line-height:normal;letter-spacing:normal;word-spacing:normal;text-transform:none;direction:ltr;block-progression:tb;writing-mode:lr-tb;text-anchor:start;baseline-shift:baseline;color:#000000;fill:#00c878;fill-opacity:0.78431373;fill-rule:nonzero;stroke:none;stroke-width:2;marker:none;visibility:visible;display:inline;overflow:visible;enable-background:accumulate;font-family:Sans;-inkscape-font-specification:Sans"
       id="path3098"
       inkscape:export-filename="/home/robin/scanner-tools/scansh.png"
       inkscape:export-xdpi="410.625"
       inkscape:export-ydpi="410.625" />
    <path
       d="m 447.42857,702.93361 c -0.4875,0 -0.93518,0.14403 -1.3125,0.4375 -0.37732,0.29347 -0.6875,0.78189 -0.6875,1.34375 l 0,8.21875 12,0 0,-8.21875 c 0,-0.56186 -0.31018,-1.05028 -0.6875,-1.34375 -0.37732,-0.29347 -0.825,-0.4375 -1.3125,-0.4375 z m 0,1 8,0 0,6 -8,0 z m 7,7 1,0 0,1 -1,0 z"
       inkscape:connector-curvature="0"
       style="font-size:medium;font-style:normal;font-variant:normal;font-weight:normal;font-stretch:normal;text-indent:0;text-align:start;text-decoration:none;line-height:normal;letter-spacing:normal;word-spacing:normal;text-transform:none;direction:ltr;block-progression:tb;writing-mode:lr-tb;text-anchor:start;baseline-shift:baseline;color:#000000;fill:#00c878;fill-opacity:0.78431373;fill-rule:nonzero;stroke:none;stroke-width:2;marker:none;visibility:visible;display:inline;overflow:visible;enable-background:accumulate;font-family:Sans;-inkscape-font-specification:Sans"
       sodipodi:nodetypes="sssccsssscccccccccc"
       id="path3100"
       inkscape:export-filename="/home/robin/scanner-tools/scansh.png"
       inkscape:export-xdpi="410.625"
       inkscape:export-ydpi="410.625" />
    <rect
       width="5.9999862"
       height="1"
       x="448.42859"
       y="707.96484"
       style="color:#000000;fill:#bebebe;fill-opacity:1;fill-rule:nonzero;stroke:none;stroke-width:2;marker:none;visibility:visible;display:inline;overflow:visible;enable-background:accumulate"
       rx="0"
       ry="0"
       id="rect3104"
       inkscape:export-filename="/home/robin/scanner-tools/scansh.png"
       inkscape:export-xdpi="410.625"
       inkscape:export-ydpi="410.625" />
    <path
       d="m 448.42858,704.96486 5.99999,0 0,0.96875 -5.99999,1 z"
       inkscape:connector-curvature="0"
       style="opacity:0.35;color:#000000;fill:#bebebe;fill-opacity:1;fill-rule:nonzero;stroke:none;stroke-width:2;marker:none;visibility:visible;display:inline;overflow:visible;enable-background:accumulate"
       sodipodi:nodetypes="ccccc"
       id="path3106"
       inkscape:export-filename="/home/robin/scanner-tools/scansh.png"
       inkscape:export-xdpi="410.625"
       inkscape:export-ydpi="410.625" />
  </g>
</svg>
